<svg width="25" height="25" viewBox="0 0 25 25" fill="none" xmlns="http://www.w3.org/2000/svg">
<g clip-path="url(#clip0_513_795)">
<path d="M22.0777 6.88787V6.54588C22.0777 4.97376 20.7987 3.6947 19.2265 3.6947H2.85117C1.279 3.69475 0 4.97376 0 6.54588V6.88787H22.0777Z" fill="#314CA3"/>
<path d="M13.0434 16.0593C13.0434 14.5803 13.519 13.1746 14.3972 12.0161H0V15.9933C0 17.5654 1.279 18.8444 2.85117 18.8444H13.6453C13.2513 17.9813 13.0434 17.0364 13.0434 16.0593ZM11.0389 15.1951H8.57812V13.7303H11.0389V15.1951ZM3.28408 13.7303H7.11328V15.1951H3.28408V13.7303Z" fill="#314CA3"/>
<path d="M15.918 10.5514C17.0351 9.76977 18.3622 9.34868 19.7541 9.34868C20.5598 9.34868 21.3436 9.49014 22.0777 9.7605V8.35278H0V10.5514H15.918Z" fill="#314CA3"/>
<path d="M25.0001 16.0593C25.0001 13.1621 22.6514 10.8135 19.7542 10.8135C16.857 10.8135 14.5083 13.1621 14.5083 16.0593C14.5083 18.9565 16.8569 21.3052 19.7542 21.3052C22.6514 21.3052 25.0001 18.9565 25.0001 16.0593ZM20.4613 18.8618V19.458H19.7289V19.458V19.458H18.9965V18.8662C18.5537 18.7163 18.1914 18.4524 17.8375 18.1937L18.7023 17.0113C19.1776 17.359 19.4209 17.5261 19.7542 17.5261C19.9427 17.5261 20.0953 17.4364 20.1525 17.292C20.2217 17.1172 20.1239 16.9562 19.8906 16.8612C19.8906 16.8612 18.8436 16.512 18.3596 16.0185C17.9535 15.6045 17.8243 15.021 17.9536 14.466C18.0838 13.9072 18.4611 13.4702 18.9965 13.252V12.6606H20.4613V13.2275C20.8333 13.3308 21.1482 13.4835 21.3293 13.5818L20.6304 14.8691C20.167 14.6176 19.7408 14.5421 19.5749 14.5989C19.4139 14.6539 19.3894 14.7588 19.3802 14.7984C19.3671 14.8544 19.3602 14.9403 19.4497 15.0401C19.5359 15.1362 20.4429 15.5045 20.4429 15.5045C21.4215 15.9029 21.882 16.9033 21.5143 17.8316C21.3232 18.3141 20.9386 18.6794 20.4613 18.8618Z" fill="#314CA3"/>
</g>
<defs>
<clipPath id="clip0_513_795">
<rect width="25" height="25" fill="white"/>
</clipPath>
</defs>
</svg>
